PathFileType	4	(X/Y/Z)	C:\Users\Basilio\Documents\Thesis Gigler\squatting_fais\c3dfiles\047\SLS_pre_front4\markers_experimental.trc
DataRate	CameraRate	NumFrames	NumMarkers	Units	OrigDataRate	OrigDataStartFrame	OrigNumFrames
200.000000	200.000000	4	60	mm	200.000000	175	1404
Frame#	Time	FHD			LBHD			RBHD			C7			T10			CLAV			LSHO			LUUPA			LMUPA			LDUPA			LLEP			LMEP			LRAD			LUL			LRFIN			RSHO			RUPA1			RMUPA			RDUPA			RLEP			RMEP			RRAD			RUL			RUFIN			LASI			RASI			USACR			LSACR			RSACR			LTHI1			LTHI2			LTHI3			LTHI4			LLFC			LMFC			LTIB1			LTIB2			LTIB3			LTIB4			LLMAL			LMMAL			LMT1			LMT2			LMT5			RTHI			RTHI2			RTHI3			RTHI4			RLFC			RMFC			RTIB1			RTIB2			RTIB3			RTIB4			RLMAL			RMMAL			RHEE			RMT1			RMT2			RMT5			
		X1	Y1	Z1	X2	Y2	Z2	X3	Y3	Z3	X4	Y4	Z4	X5	Y5	Z5	X6	Y6	Z6	X7	Y7	Z7	X8	Y8	Z8	X9	Y9	Z9	X10	Y10	Z10	X11	Y11	Z11	X12	Y12	Z12	X13	Y13	Z13	X14	Y14	Z14	X15	Y15	Z15	X16	Y16	Z16	X17	Y17	Z17	X18	Y18	Z18	X19	Y19	Z19	X20	Y20	Z20	X21	Y21	Z21	X22	Y22	Z22	X23	Y23	Z23	X24	Y24	Z24	X25	Y25	Z25	X26	Y26	Z26	X27	Y27	Z27	X28	Y28	Z28	X29	Y29	Z29	X30	Y30	Z30	X31	Y31	Z31	X32	Y32	Z32	X33	Y33	Z33	X34	Y34	Z34	X35	Y35	Z35	X36	Y36	Z36	X37	Y37	Z37	X38	Y38	Z38	X39	Y39	Z39	X40	Y40	Z40	X41	Y41	Z41	X42	Y42	Z42	X43	Y43	Z43	X44	Y44	Z44	X45	Y45	Z45	X46	Y46	Z46	X47	Y47	Z47	X48	Y48	Z48	X49	Y49	Z49	X50	Y50	Z50	X51	Y51	Z51	X52	Y52	Z52	X53	Y53	Z53	X54	Y54	Z54	X55	Y55	Z55	X56	Y56	Z56	X57	Y57	Z57	X58	Y58	Z58	X59	Y59	Z59	X60	Y60	Z60	

176	0.875	-243.4409179687501	1730.632934570313	-1042.222900390625	-421.7698059082032	1697.444580078125	-1071.983032226563	-401.6821899414064	1697.366821289063	-924.7846679687502	-445.209930419922	1505.766235351563	-1009.320922851563	-416.0973205566407	1192.71435546875	-1007.965026855469	-288.9349060058594	1469.56298828125	-1034.630004882813	-374.1084899902344	1500.144775390625	-1177.31005859375	-280.2157592773438	1440.843505859375	-1310.61376953125	-258.5979003906251	1485.675170898438	-1306.111328125	-219.1900634765626	1456.83056640625	-1339.439331054688	-163.4544219970703	1484.993041992188	-1361.524047851563	-125.1414031982422	1430.185791015625	-1318.727905273438	100.9335327148438	1525.991943359375	-1377.964721679688	78.05977630615236	1539.145751953125	-1450.270629882813	178.7484588623047	1552.6982421875	-1412.832885742188	-339.7010803222657	1505.405151367188	-883.2029418945315	-203.3926239013672	1452.63623046875	-774.330017089844	-181.8203125	1493.066772460938	-791.3889160156252	-135.09326171875	1461.400024414063	-770.1837158203127	-70.54184722900392	1485.75732421875	-773.9709472656252	-50.53939819335939	1426.875732421875	-828.2446899414065	191.4778289794922	1530.47021484375	-827.8607177734377	180.9372711181641	1536.50390625	-753.7008056640626	267.5344848632813	1557.254760742188	-809.7529907226565	-218.4658355712891	990.541687011719	-1110.2099609375	-212.5747528076172	1010.487182617188	-880.5035400390627	-406.9989013671876	1061.078491210938	-1000.406860351563	-405.6356201171876	1027.28857421875	-1027.000854492188	-408.0852661132814	1031.224975585938	-968.3278808593752	-296.6261596679688	824.7049560546877	-1169.570922851563	-257.2080688476563	750.1176757812501	-1167.2216796875	-208.1542205810547	757.5151367187501	-1158.138671875	-282.6102600097657	694.8540039062501	-1157.9482421875	-297.1381225585938	522.6348876953126	-1116.141845703125	-263.6325683593751	517.8530273437501	-998.7578125000002	-270.6744384765626	339.6614685058594	-1015.595947265625	-281.0270690917969	289.7811279296876	-1087.223510742188	-264.9484558105469	289.4563598632813	-1042.558471679688	-281.6174926757813	214.747299194336	-1007.799255371094	-334.7576293945313	118.1188201904297	-1049.34765625	-313.5444641113282	134.8180236816407	-963.3311157226565	-191.2853546142578	62.19550704956056	-978.2622070312502	-189.6943359375	59.12132263183595	-1022.745361328125	-237.6327819824219	44.83720016479493	-1068.5712890625	-207.1499023437501	843.778747558594	-786.5706176757815	-142.3602294921875	828.4368286132815	-795.186950683594	-121.3931121826172	850.4932250976565	-807.596618652344	-108.9996719360352	752.3980712890626	-801.9588623046877	-10.1993932723999	645.2217407226564	-829.1194458007815	-2.55907678604126	644.9312133789064	-953.4022216796877	87.10393524169923	557.1104125976564	-855.927429199219	85.30064392089845	456.7129516601564	-810.195739746094	119.3511352539063	479.1520080566407	-834.0786743164065	148.5014343261719	442.9571228027345	-870.1629028320315	179.7198028564453	285.3975219726563	-836.6065673828127	183.3166198730469	305.0377197265626	-926.2380981445315	136.7931060791016	227.3918762207032	-880.1790771484377	332.4513549804688	292.4472656250001	-930.134460449219	338.5453491210938	302.7145996093751	-886.2020263671877	313.3470153808594	264.2336425781251	-824.5794677734377	
177	0.88	-243.4422454833985	1730.629028320313	-1042.245361328125	-421.7649841308595	1697.443725585938	-1072.027587890625	-401.7871398925782	1697.393310546875	-924.816101074219	-445.1459350585939	1505.670776367188	-1009.398803710938	-416.1614379882814	1192.687377929688	-1008.04296875	-288.9579772949219	1469.455810546875	-1034.561157226563	-374.0663146972657	1500.18017578125	-1177.33349609375	-280.1058654785157	1440.813232421875	-1310.646484375	-258.5597534179688	1485.699584960938	-1306.095092773438	-219.0113372802735	1456.75537109375	-1339.573120117188	-163.467025756836	1484.971557617188	-1361.532958984375	-125.1691055297852	1430.076049804688	-1318.67919921875	100.9296340942383	1525.962768554688	-1377.887451171875	78.31943511962892	1539.012817382813	-1450.259887695313	178.7481384277344	1552.632934570313	-1412.814086914063	-339.7259521484376	1505.396606445313	-883.2270507812502	-203.4685821533204	1452.631225585938	-774.3735961914065	-181.9066314697266	1492.9658203125	-791.3417968750002	-135.1443328857422	1461.274658203125	-770.1853027343752	-70.56490325927736	1485.68359375	-773.9475097656252	-50.53157043457033	1426.7646484375	-828.2561035156252	191.6021270751953	1530.280029296875	-827.8084106445315	180.9678649902344	1536.352783203125	-753.5327148437501	267.6016235351563	1557.0458984375	-809.7326660156252	-218.4946899414063	990.5080566406252	-1110.11572265625	-212.5991516113282	1010.456604003906	-880.5752563476565	-407.0338439941407	1061.059936523438	-1000.460632324219	-405.6814575195314	1027.312866210938	-1027.033569335938	-408.0179443359376	1031.213989257813	-968.4002685546877	-296.6940612792969	824.7324218750002	-1169.5673828125	-257.2086791992188	750.1406860351564	-1167.279663085938	-208.9116973876954	757.2648925781251	-1157.850830078125	-282.6068115234376	694.8502197265626	-1157.94189453125	-297.1628417968751	522.6068115234376	-1116.169189453125	-263.7307434082032	517.8608398437501	-998.7589111328127	-270.5992126464844	339.7720642089844	-1016.22314453125	-281.0510559082032	289.8472595214844	-1087.25927734375	-264.9734497070313	289.4785156250001	-1042.62353515625	-281.6261291503907	214.733627319336	-1007.841186523438	-334.7553710937501	118.1003875732422	-1049.327270507813	-313.5127563476563	134.8093719482422	-963.3482055664065	-191.2882232666016	62.16194915771486	-978.2578125000002	-189.69189453125	59.1211280822754	-1022.741577148438	-237.6644439697266	44.86491394042969	-1068.578247070313	-207.1823120117188	843.7218017578127	-786.590515136719	-142.3842010498047	828.4119873046877	-795.2457275390627	-121.4678039550782	850.435729980469	-807.540954589844	-109.1438751220703	752.2766723632814	-801.8897705078127	-10.41385173797608	645.1809082031251	-828.924011230469	-2.510676145553589	644.9802246093751	-953.4353027343752	87.0232391357422	557.0393676757814	-855.936218261719	85.31643676757814	456.9260864257814	-810.4476318359377	119.3094024658203	479.1120910644532	-834.105407714844	148.3962707519532	442.9421691894532	-870.1608886718752	179.6908111572266	285.4007263183594	-836.685974121094	183.3173065185547	305.0361022949219	-926.2380981445315	136.787109375	227.3570556640626	-880.1109619140627	332.4505004882813	292.4330444335938	-930.165954589844	338.5904846191407	302.7268371582032	-886.2107543945315	313.3291320800782	264.1676025390626	-824.6002197265627	
178	0.885	-243.4783477783204	1730.646362304688	-1042.209106445313	-421.786346435547	1697.42919921875	-1072.08837890625	-401.7824707031251	1697.427368164063	-924.8670043945315	-445.1575012207032	1505.583374023438	-1009.203186035156	-416.0881958007814	1192.666870117188	-1008.089050292969	-289.1017761230469	1469.541137695313	-1034.51416015625	-373.9905700683594	1500.161010742188	-1177.368896484375	-280.1096801757813	1440.831176757813	-1310.61328125	-258.3656311035157	1485.668334960938	-1306.116088867188	-218.9640197753907	1456.816650390625	-1339.521362304688	-163.3118591308594	1484.921508789063	-1361.540893554688	-124.8843460083008	1430.266967773438	-1318.654174804688	101.0060577392578	1525.924926757813	-1377.860229492188	78.43686676025392	1539.004516601563	-1450.2021484375	178.7987670898438	1552.540405273438	-1412.62060546875	-339.6689758300782	1505.40673828125	-883.2329101562502	-203.5762786865235	1452.545776367188	-774.2711181640627	-181.88818359375	1492.942016601563	-791.3689575195315	-135.2971343994141	1461.159545898438	-770.083190917969	-70.5403289794922	1485.608276367188	-773.9611816406252	-50.57342529296876	1426.679565429688	-828.2658691406252	191.4008941650391	1530.033203125	-827.660339355469	181.0217742919922	1536.22607421875	-753.5109863281251	267.6907653808594	1556.828369140625	-809.766296386719	-218.4651031494141	990.499206542969	-1110.083374023438	-212.6107940673829	1010.446655273438	-880.5566406250002	-407.057342529297	1061.07958984375	-1000.471740722656	-405.5351562500001	1027.302612304688	-1027.0966796875	-408.0223999023439	1031.203491210938	-968.4014892578127	-296.7487182617188	824.7405395507815	-1169.563720703125	-257.2605895996094	750.1058349609376	-1167.282348632813	-208.2136993408204	757.5754394531251	-1158.2314453125	-282.6353149414063	694.8729248046876	-1157.961059570313	-297.2456665039063	522.6525878906251	-1116.171752929688	-263.8169555664063	517.9373779296876	-998.7346801757815	-270.5968017578126	339.7798156738282	-1016.218200683594	-281.0326843261719	289.8735046386719	-1087.22314453125	-264.8090515136719	289.2306518554688	-1042.793579101563	-281.6248168945313	214.7304840087891	-1007.776916503906	-334.7711181640626	118.0763778686524	-1049.35498046875	-313.5383300781251	134.7932739257813	-963.3519287109377	-191.3761138916016	62.13607788085939	-978.2797851562502	-189.7025451660157	59.11339950561525	-1022.7412109375	-237.7021789550782	44.85339355468751	-1068.570678710938	-207.1915893554688	843.7304687500002	-786.559509277344	-142.4211883544922	828.3823852539065	-795.2492675781252	-121.4765625	850.438171386719	-807.5689086914065	-109.3220748901367	752.2363891601564	-801.847106933594	-10.55844879150391	645.0393066406251	-828.871520996094	-2.789226293563843	644.9552612304689	-953.2891845703127	86.94528961181642	557.1121215820314	-855.9316406250002	85.19406127929689	456.5957946777345	-810.2158203125002	119.2656936645508	479.1466064453126	-834.0916748046877	148.3285369873047	442.931121826172	-870.1401367187502	179.686279296875	285.3794250488282	-836.669616699219	183.1644287109375	304.9672546386719	-926.2382812500002	136.7878875732422	227.3807830810547	-880.1760253906252	332.4157104492188	292.4141540527344	-930.1651611328127	338.5422058105469	302.7342529296876	-886.2164306640627	313.3182067871094	264.0986022949219	-824.521179199219	
179	0.89	-243.4636383056641	1730.650024414063	-1042.194091796875	-421.6840820312501	1697.438720703125	-1072.124633789063	-401.7690734863282	1697.43212890625	-924.9763793945315	-445.2335510253907	1505.792724609375	-1009.485656738281	-416.2009887695314	1192.669799804688	-1008.130920410156	-288.8313598632813	1469.422973632813	-1034.55908203125	-374.0470581054688	1500.215942382813	-1177.38818359375	-280.0643920898438	1440.914306640625	-1310.648803710938	-258.3927307128907	1485.71435546875	-1306.115844726563	-218.8738250732422	1456.829956054688	-1339.48388671875	-163.2982482910157	1484.952392578125	-1361.501342773438	-124.8557052612305	1430.28125	-1318.529174804688	101.0845108032227	1525.88818359375	-1377.785766601563	78.45346069335939	1538.972412109375	-1450.158447265625	178.831787109375	1552.4775390625	-1412.553955078125	-339.6538696289063	1505.439697265625	-883.3107910156252	-203.7093811035157	1452.504272460938	-774.2879638671877	-182.0263061523438	1492.8642578125	-791.2855224609377	-135.4206237792969	1461.115600585938	-770.011901855469	-70.60256958007814	1485.468383789063	-773.9212646484377	-50.73918533325197	1426.532348632813	-827.873474121094	191.3247680664063	1529.825439453125	-827.5156250000002	180.831039428711	1535.920532226563	-753.3006591796876	267.7310485839844	1556.489501953125	-809.6648559570315	-218.3919677734376	990.5411376953127	-1110.225463867188	-212.6014099121094	1010.444519042969	-880.5800781250002	-407.0463867187501	1061.081176757813	-1000.486389160156	-405.5081481933595	1027.281005859375	-1027.10693359375	-408.016326904297	1031.213989257813	-968.4299316406252	-296.7851562500001	824.7337646484377	-1169.611938476563	-257.3270263671876	750.1340332031251	-1167.3564453125	-208.2042541503907	757.5455322265626	-1158.2763671875	-282.7051391601563	694.8529052734376	-1157.942260742188	-297.2523498535157	522.6511840820314	-1116.163452148438	-263.8370056152344	517.9670410156251	-998.7581787109377	-270.6589660644532	339.7709960937501	-1016.2568359375	-281.1036071777344	289.9265136718751	-1087.296508789063	-265.0335693359376	289.7907714843751	-1042.847778320313	-281.6724548339844	214.7002410888672	-1007.837219238281	-334.7594604492188	118.1113891601563	-1049.3193359375	-313.5475463867188	134.8347625732422	-963.3924560546877	-191.4830932617188	62.13565826416017	-978.2691650390627	-189.6094665527344	59.1601905822754	-1022.702697753906	-237.6374816894532	44.84746932983399	-1068.597045898438	-207.2951660156251	843.7104492187502	-786.447937011719	-142.4699401855469	828.374206542969	-795.3015136718752	-121.5246124267578	850.4315185546877	-807.608825683594	-109.3352584838867	752.2981567382814	-801.9026489257815	-10.78210163116455	644.9025878906251	-828.7310791015627	-2.707850694656373	644.9379272460939	-953.282409667969	86.87203216552736	557.0436401367189	-855.914489746094	85.25521850585939	456.8989257812501	-810.4597167968752	119.2520294189453	479.127166748047	-834.163513183594	148.2890930175782	442.9164123535157	-870.1351318359377	179.6897888183594	285.4024047851563	-836.6860351562502	183.4288177490235	305.0967712402344	-926.3206787109377	136.7836151123047	227.5001831054688	-880.1865844726565	332.3961486816407	292.4546508789063	-930.1673583984377	338.5556945800782	302.7098388671876	-886.2349243164065	313.3618469238282	264.0993347167969	-824.563659667969	
